HIERARCHY
ROOT Hips
{
    OFFSET 0.0 0.0 0.0
    CHANNELS 6 Xposition Yposition Zposition Zrotation Xrotation Yrotation
    JOINT LeftHipJoint
    {
        OFFSET 0.1 0.0 0.0
        CHANNELS 3 Zrotation Xrotation Yrotation
        JOINT LeftUpLeg
        {
            OFFSET 126.0098822316116 0.0 0.0
            CHANNELS 3 Zrotation Xrotation Yrotation
            JOINT LeftLeg
            {
                OFFSET 0.0 0.0 -438.4809385190634
                CHANNELS 3 Zrotation Xrotation Yrotation
                JOINT LeftFoot
                {
                    OFFSET 0.0 0.0 -414.9680586762096
                    CHANNELS 3 Zrotation Xrotation Yrotation
                    End Site
                    {
                        OFFSET 0.0 -0.1 0.0
                    }
                }
            }
        }
    }
    JOINT LowerBack
    {
        OFFSET 0.0 0.0 0.1
        CHANNELS 3 Zrotation Xrotation Yrotation
        JOINT Spine
        {
            OFFSET 0.0 0.0 235.61184957031097
            CHANNELS 3 Zrotation Xrotation Yrotation
            JOINT Spine1
            {
                OFFSET 0.0 0.0 250.34926963795118
                CHANNELS 3 Zrotation Xrotation Yrotation
                JOINT LeftShoulder
                {
                    OFFSET 0.1 0.0 0.0
                    CHANNELS 3 Zrotation Xrotation Yrotation
                    JOINT LeftArm
                    {
                        OFFSET 139.58382966553899 0.0 0.0
                        CHANNELS 3 Zrotation Xrotation Yrotation
                        JOINT LeftForeArm
                        {
                            OFFSET 260.80540009901813 0.0 0.0
                            CHANNELS 3 Zrotation Xrotation Yrotation
                            JOINT LeftHand
                            {
                                OFFSET 215.78538186453937 0.0 0.0
                                CHANNELS 3 Zrotation Xrotation Yrotation
                                End Site
                                {
                                    OFFSET 0.1 0.0 0.0
                                }
                            }
                        }
                    }
                }
                JOINT Neck
                {
                    OFFSET 0.0 0.0 0.1
                    CHANNELS 3 Zrotation Xrotation Yrotation
                    JOINT Neck1
                    {
                        OFFSET 0.0 0.0 96.6994421298385
                        CHANNELS 3 Zrotation Xrotation Yrotation
                        End Site
                        {
                            OFFSET 0.0 0.0 108.44757404515975
                        }
                    }
                }
                JOINT RightShoulder
                {
                    OFFSET -0.1 0.0 0.0
                    CHANNELS 3 Zrotation Xrotation Yrotation
                    JOINT RightArm
                    {
                        OFFSET -139.58382966553899 0.0 0.0
                        CHANNELS 3 Zrotation Xrotation Yrotation
                        JOINT RightForeArm
                        {
                            OFFSET -260.80540009901813 0.0 0.0
                            CHANNELS 3 Zrotation Xrotation Yrotation
                            JOINT RightHand
                            {
                                OFFSET -215.78538186453937 0.0 0.0
                                CHANNELS 3 Zrotation Xrotation Yrotation
                                End Site
                                {
                                    OFFSET -0.1 0.0 0.0
                                }
                            }
                        }
                    }
                }
            }
        }
    }
    JOINT RightHipJoint
    {
        OFFSET -0.1 0.0 0.0
        CHANNELS 3 Zrotation Xrotation Yrotation
        JOINT RightUpLeg
        {
            OFFSET -126.0098822316116 0.0 0.0
            CHANNELS 3 Zrotation Xrotation Yrotation
            JOINT RightLeg
            {
                OFFSET 0.0 0.0 -438.4809385190634
                CHANNELS 3 Zrotation Xrotation Yrotation
                JOINT RightFoot
                {
                    OFFSET 0.0 0.0 -414.9680586762096
                    CHANNELS 3 Zrotation Xrotation Yrotation
                    End Site
                    {
                        OFFSET 0.0 -0.1 0.0
                    }
                }
            }
        }
    }
}
MOTION
Frames: 7
Frame Time: 0.03333333333333333
0.0 0.0 922.1005703987036 54.01056142490713 2.162466238222048 -16.60955381021323 0.0 0.0 0.0 5.206777755382384 -10.853969170926433 14.227317771911025 -6.384648900486766 28.4823502964094 21.13774398212139 0.0 0.0 -1.5902773407317584e-15 0.0 0.0 0.0 -8.155317050494359 16.6966536550926 -14.86669342769283 0.5608531643479066 3.203866697109806e-15 4.755208139811974e-15 0.0 0.0 0.0 -0.012533830502259782 -2.3989833175350923 66.81028549475307 -103.33645811967087 8.311378462297595e-15 1.5377679064226043e-15 -6.361109362927032e-15 3.180554681463516e-15 -1.5902773407317578e-15 0.0 0.0 0.0 -38.18137114305327 -3.4185781328326215 5.165347045659801 0.0 0.0 0.0 -16.268501086674444 -32.81590965009001 -46.418122870735345 55.00899856728108 -9.31423786837345e-15 -4.115001308577899e-15 0.0 0.0 1.5902773407317584e-15 0.0 0.0 0.0 8.334021968864416 -17.048229788784273 17.604554026944708 -3.5152992288220606 21.263999167217406 9.415110771508063 -2.4138550067461805e-33 -7.951386703658791e-16 -3.478731682850721e-16
0.0 0.0 922.1005703987036 52.618806554408 2.101602567898343 -16.96979956140293 0.0 -1.5902773407317582e-15 0.0 5.182099763847281 -10.630189660654722 14.790451058250639 -6.005688489892209 27.471766110401717 19.438149150645298 0.0 0.0 7.951386703658792e-16 0.0 -1.5902773407317582e-15 0.0 -8.640196811646902 17.349008874952276 -14.332612225696995 -1.3709666150071709 -3.1613015285428607e-15 -1.6282145890075247e-15 -6.361109362927033e-15 -3.1805546814635168e-15 3.180554681463516e-15 -4.108133986017682 -2.3943009646972904 66.17579538735068 -100.94061099909052 8.57584277132875e-16 -8.954997144714809e-15 0.0 0.0 1.5902773407317584e-15 -6.361109362927033e-15 -3.1805546814635168e-15 3.180554681463516e-15 -36.39533560961841 -4.249341154087052 5.638144217164665 -6.361109362927033e-15 -3.1805546814635168e-15 3.180554681463516e-15 -16.769108329755852 -30.64931281318942 -49.970405277918545 52.44974278891993 -7.89899750205837e-15 1.2754812357775763e-14 0.0 0.0 -1.5902773407317584e-15 0.0 -1.5902773407317582e-15 0.0 8.127322824415971 -16.390779597088695 18.207575232694 -3.273060285736545 20.586101251715778 7.171034348477621 0.0 0.0 4.969616689786745e-16
0.0 0.0 922.1005703987036 51.46047365516311 2.4454006738288427 -16.78213754004466 0.0 0.0 0.0 4.918237454960609 -10.423119293188837 14.575335258310917 -5.291962820913913 25.700922442202607 18.788873249783904 0.0 0.0 7.951386703658792e-16 0.0 0.0 0.0 -8.809763271269672 18.204513953809617 -15.332413133934741 -0.5699133640177674 -4.762863914853167e-15 -1.613984985381929e-15 0.0 0.0 0.0 -6.355841003685484 -3.4833500297901683 65.59202262744681 -100.5570922291443 3.561524916783704e-15 1.176011375733007e-15 0.0 0.0 -3.1805546814635168e-15 0.0 0.0 0.0 -35.35938547795156 -4.961067655955003 4.704809614207292 0.0 0.0 0.0 -16.284689595111146 -30.77051202472281 -50.21953296978693 45.999172463371934 8.340891145032494e-15 3.3700088369252816e-15 0.0 0.0 2.3854160110976376e-15 0.0 0.0 0.0 8.275511949120204 -17.183573789734204 18.126508069992727 -3.2449520504992293 21.70390206605514 5.807800310089118 0.0 0.0 -5.963540027744094e-16
0.0 0.0 922.1005703987036 50.26969704611228 2.095349203266833 -16.71379273226945 0.0 0.0 0.0 4.7749246890366654 -9.934722688865678 14.297384113764867 -5.374969672904697 24.682474847266796 18.540043806585143 0.0 0.0 -1.5902773407317584e-15 0.0 0.0 0.0 -9.413473208597198 19.0070012740325 -16.236195070444737 -0.6927893164130415 -3.1612679065822784e-15 -3.1997252048217956e-15 0.0 0.0 0.0 -9.331355323667513 -4.6127619664032995 67.48103007153719 -99.96274682489091 5.698885329352673e-15 -6.32038186087066e-16 0.0 0.0 3.1805546814635168e-15 0.0 0.0 0.0 -35.011309997192946 -5.726172327324815 5.356768653951316 0.0 0.0 0.0 -12.143112126039341 -29.227722200272126 -48.16145092123261 39.95456103875333 -1.0054153195854762e-14 2.7071079047274853e-16 0.0 0.0 -3.975693351829396e-16 0.0 0.0 0.0 8.195965759547597 -16.721314876501754 18.26042561368137 -3.1482469892476805 20.532493879225363 5.305789333701096 0.0 0.0 -3.975693351829396e-16
0.0 0.0 922.1005703987036 48.30326389121061 4.425016021597843 -17.899376816827345 0.0 0.0 7.951386703658792e-16 5.662002960363171 -11.459193374690363 15.22915229693098 -4.839986079853147 22.930444057405044 17.352915819253564 0.0 0.0 -1.5902773407317584e-15 0.0 0.0 7.951386703658792e-16 -9.838065161479198 19.356692298108534 -15.359749598647257 0.7516514156540237 6.329678965752025e-15 -4.812454124626874e-15 0.0 0.0 3.180554681463516e-15 -10.761366456117603 -4.319692861004588 67.52143577615385 -96.98366835037656 2.9297051688430007e-15 -1.1087104792811695e-14 -6.3611093629270335e-15 8.827812596100317e-32 -1.5902773407317584e-15 0.0 0.0 3.180554681463516e-15 -31.299300645401512 -6.938210523245008 5.456452473481108 0.0 0.0 3.180554681463516e-15 -13.806698263145867 -31.92064597443321 -50.673352293860724 35.02912074954635 3.272401280564134e-15 -1.9890562046589584e-16 3.1805546814635164e-15 1.1034765745125397e-32 3.9756933518293955e-16 0.0 0.0 7.951386703658792e-16 9.161005382308558 -18.133650010490665 20.16194719163162 -2.6474040306822246 19.988439883263503 4.226300286084151 0.0 0.0 2.981770013872047e-16
0.0 0.0 922.1005703987036 45.15662611060849 5.779234155939624 -17.82045273353175 0.0 0.0 0.0 6.903193074918709 -14.533482960968035 15.473534199747752 -3.843317322331772 20.289161514155168 13.15023190880858 0.0 0.0 -3.975693351829396e-16 0.0 0.0 0.0 -10.175321445164547 20.865842363061862 -15.972679533139175 2.42323534179212 -1.0087991861110426e-16 -4.769765342868019e-15 0.0 0.0 0.0 -11.414864266504633 -7.1839040225026185 67.14836703389267 -99.36140147468706 -3.3983171417160605e-15 7.055441488674324e-15 0.0 0.0 0.0 0.0 0.0 0.0 -31.282149799503287 -7.753120841308574 7.115062027209113 0.0 0.0 0.0 -5.288695955031837 -29.365274476442963 -45.22908090029254 30.285942334201238 -7.852742771852921e-16 9.273671253059818e-15 3.965618939654439e-33 3.1805546814635168e-15 -1.428764798313689e-16 0.0 0.0 0.0 7.935391375989194 -16.59329489188925 19.878281342065083 -1.9280672346334813 17.357963330026017 3.863251443924868 0.0 3.9756933518293955e-16 0.0
0.0 0.0 922.1005703987036 42.15525984512346 7.442137478088935 -17.965907444842397 0.0 0.0 7.95138670365879e-16 7.398998497003889 -15.436755091922967 15.46673180426206 -3.7805664558030436 19.523019308259574 12.323979935513298 2.758691436281349e-33 7.951386703658791e-16 -3.9756933518293955e-16 0.0 0.0 7.95138670365879e-16 -10.216035708961112 20.82970250738468 -15.848500564251387 3.5750600126832572 1.6391093450227336e-15 1.5398975926823486e-15 0.0 0.0 0.0 -12.815228522388 -7.310153463598199 68.52309303637452 -98.61752657691814 -1.1720085420242647e-14 5.8830583145560505e-15 0.0 0.0 1.5902773407317584e-15 0.0 0.0 0.0 -29.37698615726941 -9.420409293567369 7.00899186092656 0.0 0.0 0.0 -4.612603600798783 -29.188764592180004 -45.484802234802814 28.492264076155376 3.278418727642344e-15 -1.2009710015907607e-17 0.0 0.0 7.951386703658792e-16 0.0 0.0 7.95138670365879e-16 8.572385612605062 -17.737507975126764 20.244901125339048 -1.8629928356174346 16.956992729949224 3.429941388108048 0.0 0.0 -3.975693351829396e-16
